%TF.GenerationSoftware,KiCad,Pcbnew,9.0.7*%
%TF.CreationDate,2026-01-23T22:21:20+01:00*%
%TF.ProjectId,gps drone module,67707320-6472-46f6-9e65-206d6f64756c,rev?*%
%TF.SameCoordinates,Original*%
%TF.FileFunction,Copper,L1,Top*%
%TF.FilePolarity,Positive*%
%FSLAX46Y46*%
G04 Gerber Fmt 4.6, Leading zero omitted, Abs format (unit mm)*
G04 Created by KiCad (PCBNEW 9.0.7) date 2026-01-23 22:21:20*
%MOMM*%
%LPD*%
G01*
G04 APERTURE LIST*
G04 Aperture macros list*
%AMRoundRect*
0 Rectangle with rounded corners*
0 $1 Rounding radius*
0 $2 $3 $4 $5 $6 $7 $8 $9 X,Y pos of 4 corners*
0 Add a 4 corners polygon primitive as box body*
4,1,4,$2,$3,$4,$5,$6,$7,$8,$9,$2,$3,0*
0 Add four circle primitives for the rounded corners*
1,1,$1+$1,$2,$3*
1,1,$1+$1,$4,$5*
1,1,$1+$1,$6,$7*
1,1,$1+$1,$8,$9*
0 Add four rect primitives between the rounded corners*
20,1,$1+$1,$2,$3,$4,$5,0*
20,1,$1+$1,$4,$5,$6,$7,0*
20,1,$1+$1,$6,$7,$8,$9,0*
20,1,$1+$1,$8,$9,$2,$3,0*%
G04 Aperture macros list end*
%TA.AperFunction,ComponentPad*%
%ADD10R,0.850000X0.850000*%
%TD*%
%TA.AperFunction,SMDPad,CuDef*%
%ADD11RoundRect,0.250000X0.475000X-0.337500X0.475000X0.337500X-0.475000X0.337500X-0.475000X-0.337500X0*%
%TD*%
%TA.AperFunction,SMDPad,CuDef*%
%ADD12R,1.500000X1.800000*%
%TD*%
%TA.AperFunction,SMDPad,CuDef*%
%ADD13R,1.800000X1.500000*%
%TD*%
%TA.AperFunction,SMDPad,CuDef*%
%ADD14RoundRect,0.250000X0.350000X0.450000X-0.350000X0.450000X-0.350000X-0.450000X0.350000X-0.450000X0*%
%TD*%
%TA.AperFunction,SMDPad,CuDef*%
%ADD15RoundRect,0.250000X-0.450000X0.350000X-0.450000X-0.350000X0.450000X-0.350000X0.450000X0.350000X0*%
%TD*%
%TA.AperFunction,ComponentPad*%
%ADD16RoundRect,0.250000X0.600000X0.725000X-0.600000X0.725000X-0.600000X-0.725000X0.600000X-0.725000X0*%
%TD*%
%TA.AperFunction,ComponentPad*%
%ADD17O,1.700000X1.950000*%
%TD*%
%TA.AperFunction,SMDPad,CuDef*%
%ADD18RoundRect,0.100000X-0.217500X-0.100000X0.217500X-0.100000X0.217500X0.100000X-0.217500X0.100000X0*%
%TD*%
%TA.AperFunction,Conductor*%
%ADD19C,0.200000*%
%TD*%
G04 APERTURE END LIST*
D10*
%TO.P,J2,1,Pin_1*%
%TO.N,Net-(J2-Pin_1)*%
X76000000Y-70500000D03*
%TD*%
D11*
%TO.P,C4,2*%
%TO.N,+3.3V*%
X94000000Y-62425000D03*
%TO.P,C4,1*%
%TO.N,GND*%
X94000000Y-64500000D03*
%TD*%
D12*
%TO.P,U3,1,GND*%
%TO.N,GND*%
X86712500Y-54080000D03*
%TO.P,U3,2,VCC_IO*%
%TO.N,+3.3V*%
X84812500Y-54080000D03*
%TO.P,U3,3,V_BCKP*%
X82912500Y-54080000D03*
%TO.P,U3,4,GND*%
%TO.N,GND*%
X81012500Y-54080000D03*
%TO.P,U3,5,GND*%
X79112500Y-54080000D03*
D13*
%TO.P,U3,6,GND*%
X76312500Y-56880000D03*
%TO.P,U3,7,TIMEPULSE*%
%TO.N,Net-(U3-TIMEPULSE)*%
X76312500Y-58780000D03*
%TO.P,U3,8,~{SAFEBOOT}*%
%TO.N,Net-(J2-Pin_1)*%
X76312500Y-60680000D03*
%TO.P,U3,9,SDA*%
%TO.N,unconnected-(U3-SDA-Pad9)*%
X76312500Y-62580000D03*
%TO.P,U3,10,GND*%
%TO.N,GND*%
X76312500Y-64480000D03*
D12*
%TO.P,U3,11,GND*%
X79112500Y-67280000D03*
%TO.P,U3,12,SCL*%
%TO.N,unconnected-(U3-SCL-Pad12)*%
X81012500Y-67280000D03*
%TO.P,U3,13,TXD*%
%TO.N,Net-(J3-Pin_3)*%
X82912500Y-67280000D03*
%TO.P,U3,14,RXD*%
%TO.N,Net-(J3-Pin_2)*%
X84812500Y-67280000D03*
%TO.P,U3,15,GND*%
%TO.N,GND*%
X86712500Y-67280000D03*
D13*
%TO.P,U3,16,GND*%
X89512500Y-64480000D03*
%TO.P,U3,17,VCC*%
%TO.N,+3.3V*%
X89512500Y-62580000D03*
%TO.P,U3,18,~{RESET}*%
%TO.N,Net-(U3-~{RESET})*%
X89512500Y-60680000D03*
%TO.P,U3,19,EXTINT*%
%TO.N,unconnected-(U3-EXTINT-Pad19)*%
X89512500Y-58780000D03*
%TO.P,U3,20,GND*%
%TO.N,GND*%
X89512500Y-56880000D03*
%TD*%
D14*
%TO.P,R3,1*%
%TO.N,+3.3V*%
X94000000Y-60500000D03*
%TO.P,R3,2*%
%TO.N,Net-(U3-~{RESET})*%
X92000000Y-60500000D03*
%TD*%
D15*
%TO.P,R1,1*%
%TO.N,Net-(U3-TIMEPULSE)*%
X93500000Y-53500000D03*
%TO.P,R1,2*%
%TO.N,Net-(D1-A)*%
X93500000Y-55500000D03*
%TD*%
D16*
%TO.P,J3,1,Pin_1*%
%TO.N,+3.3V*%
X87500000Y-72800000D03*
D17*
%TO.P,J3,2,Pin_2*%
%TO.N,Net-(J3-Pin_2)*%
X85000000Y-72800000D03*
%TO.P,J3,3,Pin_3*%
%TO.N,Net-(J3-Pin_3)*%
X82500000Y-72800000D03*
%TO.P,J3,4,Pin_4*%
%TO.N,GND*%
X80000000Y-72800000D03*
%TD*%
D18*
%TO.P,D1,1,K*%
%TO.N,GND*%
X93000000Y-57000000D03*
%TO.P,D1,2,A*%
%TO.N,Net-(D1-A)*%
X93815000Y-57000000D03*
%TD*%
D11*
%TO.P,C3,1*%
%TO.N,GND*%
X92000000Y-64500000D03*
%TO.P,C3,2*%
%TO.N,+3.3V*%
X92000000Y-62425000D03*
%TD*%
D19*
%TO.N,+3.3V*%
X92500000Y-69500000D02*
X87500000Y-69500000D01*
X87500000Y-69500000D02*
X87500000Y-72800000D01*
X95500000Y-63000000D02*
X95500000Y-66500000D01*
X94925000Y-62425000D02*
X95500000Y-63000000D01*
X94000000Y-62425000D02*
X94925000Y-62425000D01*
X95500000Y-66500000D02*
X92500000Y-69500000D01*
X89384500Y-54500000D02*
X87763500Y-52879000D01*
X94500000Y-54500000D02*
X89384500Y-54500000D01*
X95000000Y-55000000D02*
X94500000Y-54500000D01*
X95000000Y-60000000D02*
X95000000Y-55000000D01*
X94500000Y-60500000D02*
X95000000Y-60000000D01*
X94000000Y-60500000D02*
X94500000Y-60500000D01*
X87751000Y-52866500D02*
X87763500Y-52879000D01*
X83133500Y-52866500D02*
X87751000Y-52866500D01*
X82912500Y-53087500D02*
X83133500Y-52866500D01*
X82912500Y-54080000D02*
X82912500Y-53087500D01*
X84812500Y-52980000D02*
X84812500Y-54080000D01*
X84913500Y-52879000D02*
X84812500Y-52980000D01*
X87763500Y-52879000D02*
X84913500Y-52879000D01*
X89512500Y-62580000D02*
X92420000Y-62580000D01*
%TO.N,GND*%
X93980000Y-64480000D02*
X94000000Y-64500000D01*
X89512500Y-64480000D02*
X93980000Y-64480000D01*
X89632500Y-57000000D02*
X89512500Y-56880000D01*
X93000000Y-57000000D02*
X89632500Y-57000000D01*
%TO.N,Net-(D1-A)*%
X93815000Y-55815000D02*
X93815000Y-57000000D01*
X93500000Y-55500000D02*
X93815000Y-55815000D01*
%TO.N,Net-(U3-TIMEPULSE)*%
X92000000Y-52000000D02*
X93500000Y-53500000D01*
X78000000Y-52000000D02*
X92000000Y-52000000D01*
X75111500Y-54888500D02*
X78000000Y-52000000D01*
X75960500Y-58780000D02*
X75111500Y-57931000D01*
X75111500Y-57931000D02*
X75111500Y-54888500D01*
X76312500Y-58780000D02*
X75960500Y-58780000D01*
%TO.N,Net-(J2-Pin_1)*%
X75111500Y-69611500D02*
X76000000Y-70500000D01*
X75960500Y-60680000D02*
X75111500Y-61529000D01*
X76312500Y-60680000D02*
X75960500Y-60680000D01*
X75111500Y-61529000D02*
X75111500Y-69611500D01*
%TO.N,Net-(J3-Pin_2)*%
X85000000Y-67467500D02*
X84812500Y-67280000D01*
X85000000Y-72800000D02*
X85000000Y-67467500D01*
%TO.N,Net-(J3-Pin_3)*%
X82500000Y-67692500D02*
X82912500Y-67280000D01*
X82500000Y-72800000D02*
X82500000Y-67692500D01*
%TO.N,GND*%
X79112500Y-71912500D02*
X79112500Y-67280000D01*
X80000000Y-72800000D02*
X79112500Y-71912500D01*
%TO.N,+3.3V*%
X94000000Y-60500000D02*
X94000000Y-62425000D01*
%TO.N,Net-(U3-~{RESET})*%
X89692500Y-60500000D02*
X89512500Y-60680000D01*
X92000000Y-60500000D02*
X89692500Y-60500000D01*
%TO.N,+3.3V*%
X94000000Y-62425000D02*
X92000000Y-62425000D01*
X89667500Y-62425000D02*
X89512500Y-62580000D01*
X92000000Y-62425000D02*
X89667500Y-62425000D01*
%TO.N,GND*%
X79112500Y-54612500D02*
X79112500Y-54080000D01*
X80500000Y-56000000D02*
X79112500Y-54612500D01*
X86000000Y-56000000D02*
X80500000Y-56000000D01*
X86712500Y-54080000D02*
X86712500Y-55287500D01*
X86712500Y-55287500D02*
X86000000Y-56000000D01*
X76880000Y-56880000D02*
X76312500Y-56880000D01*
X78000000Y-63144500D02*
X78000000Y-58000000D01*
X76664500Y-64480000D02*
X78000000Y-63144500D01*
X76312500Y-64480000D02*
X76664500Y-64480000D01*
X78000000Y-58000000D02*
X76880000Y-56880000D01*
X79750000Y-67917500D02*
X79112500Y-67280000D01*
%TO.N,Net-(J3-Pin_2)*%
X84750000Y-67342500D02*
X84812500Y-67280000D01*
%TO.N,GND*%
X76312500Y-64480000D02*
X79112500Y-67280000D01*
X76312500Y-56880000D02*
X79112500Y-54080000D01*
X89512500Y-56880000D02*
X86712500Y-54080000D01*
X86712500Y-67280000D02*
X89512500Y-64480000D01*
%TD*%
%TA.AperFunction,Conductor*%
%TO.N,GND*%
G36*
X95942539Y-51020185D02*
G01*
X95988294Y-51072989D01*
X95999500Y-51124500D01*
X95999500Y-62350902D01*
X95979815Y-62417941D01*
X95927011Y-62463696D01*
X95857853Y-62473640D01*
X95794297Y-62444615D01*
X95787819Y-62438583D01*
X95293717Y-61944481D01*
X95293712Y-61944477D01*
X95241246Y-61914186D01*
X95193030Y-61863619D01*
X95185540Y-61845802D01*
X95159816Y-61768170D01*
X95159814Y-61768166D01*
X95067712Y-61618844D01*
X94983356Y-61534488D01*
X94949872Y-61473164D01*
X94954856Y-61403473D01*
X94965500Y-61381710D01*
X95000001Y-61325776D01*
X95034814Y-61269334D01*
X95089999Y-61102797D01*
X95100500Y-61000009D01*
X95100499Y-60800096D01*
X95120183Y-60733057D01*
X95136808Y-60712425D01*
X95480520Y-60368716D01*
X95559577Y-60231784D01*
X95600501Y-60079057D01*
X95600501Y-59920942D01*
X95600501Y-59913347D01*
X95600500Y-59913329D01*
X95600500Y-55089060D01*
X95600501Y-55089047D01*
X95600501Y-54920944D01*
X95600501Y-54920943D01*
X95559577Y-54768216D01*
X95559573Y-54768209D01*
X95480524Y-54631290D01*
X95480518Y-54631282D01*
X94868717Y-54019481D01*
X94868716Y-54019480D01*
X94781904Y-53969360D01*
X94762497Y-53958155D01*
X94714284Y-53907591D01*
X94700499Y-53850773D01*
X94700499Y-53099992D01*
X94697692Y-53072517D01*
X94689999Y-52997203D01*
X94689998Y-52997200D01*
X94670271Y-52937669D01*
X94634814Y-52830666D01*
X94542712Y-52681344D01*
X94418656Y-52557288D01*
X94269334Y-52465186D01*
X94102797Y-52410001D01*
X94102795Y-52410000D01*
X94000016Y-52399500D01*
X94000009Y-52399500D01*
X93300097Y-52399500D01*
X93233058Y-52379815D01*
X93212416Y-52363181D01*
X92487590Y-51638355D01*
X92487588Y-51638352D01*
X92368717Y-51519481D01*
X92368716Y-51519480D01*
X92281904Y-51469360D01*
X92281904Y-51469359D01*
X92281900Y-51469358D01*
X92231785Y-51440423D01*
X92079057Y-51399499D01*
X91920943Y-51399499D01*
X91913347Y-51399499D01*
X91913331Y-51399500D01*
X78086669Y-51399500D01*
X78086653Y-51399499D01*
X78079057Y-51399499D01*
X77920943Y-51399499D01*
X77813587Y-51428265D01*
X77768210Y-51440424D01*
X77768209Y-51440425D01*
X77718096Y-51469359D01*
X77718095Y-51469360D01*
X77674689Y-51494420D01*
X77631285Y-51519479D01*
X77631282Y-51519481D01*
X74630981Y-54519782D01*
X74630980Y-54519784D01*
X74596759Y-54579057D01*
X74551923Y-54656715D01*
X74510999Y-54809443D01*
X74510999Y-54809445D01*
X74510999Y-54977546D01*
X74511000Y-54977559D01*
X74511000Y-57844330D01*
X74510999Y-57844348D01*
X74510999Y-58010054D01*
X74510998Y-58010054D01*
X74551923Y-58162787D01*
X74561573Y-58179499D01*
X74561576Y-58179503D01*
X74630979Y-58299714D01*
X74630981Y-58299717D01*
X74749849Y-58418585D01*
X74749855Y-58418590D01*
X74875681Y-58544416D01*
X74909166Y-58605739D01*
X74912000Y-58632097D01*
X74912000Y-59577870D01*
X74912001Y-59577876D01*
X74918408Y-59637482D01*
X74931504Y-59672593D01*
X74936752Y-59686665D01*
X74936753Y-59686666D01*
X74941737Y-59756358D01*
X74936753Y-59773331D01*
X74918409Y-59822514D01*
X74918408Y-59822516D01*
X74912001Y-59882116D01*
X74912001Y-59882123D01*
X74912000Y-59882135D01*
X74912000Y-60827902D01*
X74892315Y-60894941D01*
X74875681Y-60915583D01*
X74630981Y-61160282D01*
X74630975Y-61160290D01*
X74585201Y-61239575D01*
X74585201Y-61239576D01*
X74551923Y-61297214D01*
X74551923Y-61297215D01*
X74510999Y-61449943D01*
X74510999Y-61449945D01*
X74510999Y-61618046D01*
X74511000Y-61618059D01*
X74511000Y-69524830D01*
X74510999Y-69524848D01*
X74510999Y-69690554D01*
X74510998Y-69690554D01*
X74551923Y-69843286D01*
X74566604Y-69868712D01*
X74566605Y-69868717D01*
X74566607Y-69868717D01*
X74630979Y-69980214D01*
X74630981Y-69980217D01*
X74749849Y-70099085D01*
X74749855Y-70099090D01*
X75038181Y-70387416D01*
X75071666Y-70448739D01*
X75074500Y-70475097D01*
X75074500Y-70972870D01*
X75074501Y-70972876D01*
X75080908Y-71032483D01*
X75131202Y-71167328D01*
X75131206Y-71167335D01*
X75217452Y-71282544D01*
X75217455Y-71282547D01*
X75332664Y-71368793D01*
X75332671Y-71368797D01*
X75467517Y-71419091D01*
X75467516Y-71419091D01*
X75474444Y-71419835D01*
X75527127Y-71425500D01*
X76472872Y-71425499D01*
X76532483Y-71419091D01*
X76667331Y-71368796D01*
X76782546Y-71282546D01*
X76868796Y-71167331D01*
X76919091Y-71032483D01*
X76925500Y-70972873D01*
X76925499Y-70027128D01*
X76919091Y-69967517D01*
X76878434Y-69858511D01*
X76868797Y-69832671D01*
X76868793Y-69832664D01*
X76782547Y-69717455D01*
X76782544Y-69717452D01*
X76667335Y-69631206D01*
X76667328Y-69631202D01*
X76532482Y-69580908D01*
X76532483Y-69580908D01*
X76472883Y-69574501D01*
X76472881Y-69574500D01*
X76472873Y-69574500D01*
X76472865Y-69574500D01*
X75975098Y-69574500D01*
X75945657Y-69565855D01*
X75915671Y-69559332D01*
X75910655Y-69555577D01*
X75908059Y-69554815D01*
X75887417Y-69538181D01*
X75748319Y-69399083D01*
X75714834Y-69337760D01*
X75712000Y-69311402D01*
X75712000Y-68227844D01*
X77862500Y-68227844D01*
X77868901Y-68287372D01*
X77868903Y-68287379D01*
X77919145Y-68422086D01*
X77919149Y-68422093D01*
X78005309Y-68537187D01*
X78005312Y-68537190D01*
X78120406Y-68623350D01*
X78120413Y-68623354D01*
X78255120Y-68673596D01*
X78255127Y-68673598D01*
X78314655Y-68679999D01*
X78314672Y-68680000D01*
X78862500Y-68680000D01*
X78862500Y-67530000D01*
X77862500Y-67530000D01*
X77862500Y-68227844D01*
X75712000Y-68227844D01*
X75712000Y-66332155D01*
X77862500Y-66332155D01*
X77862500Y-67030000D01*
X78862500Y-67030000D01*
X78862500Y-65880000D01*
X78314655Y-65880000D01*
X78255127Y-65886401D01*
X78255120Y-65886403D01*
X78120413Y-65936645D01*
X78120406Y-65936649D01*
X78005312Y-66022809D01*
X78005309Y-66022812D01*
X77919149Y-66137906D01*
X77919145Y-66137913D01*
X77868903Y-66272620D01*
X77868901Y-66272627D01*
X77862500Y-66332155D01*
X75712000Y-66332155D01*
X75712000Y-65854000D01*
X75731685Y-65786961D01*
X75784489Y-65741206D01*
X75836000Y-65730000D01*
X76062500Y-65730000D01*
X76562500Y-65730000D01*
X77260328Y-65730000D01*
X77260344Y-65729999D01*
X77319872Y-65723598D01*
X77319879Y-65723596D01*
X77454586Y-65673354D01*
X77454593Y-65673350D01*
X77569687Y-65587190D01*
X77569690Y-65587187D01*
X77655850Y-65472093D01*
X77655854Y-65472086D01*
X77706096Y-65337379D01*
X77706098Y-65337372D01*
X77712499Y-65277844D01*
X88112500Y-65277844D01*
X88118901Y-65337372D01*
X88118903Y-65337379D01*
X88169145Y-65472086D01*
X88169149Y-65472093D01*
X88255309Y-65587187D01*
X88255312Y-65587190D01*
X88370406Y-65673350D01*
X88370413Y-65673354D01*
X88505120Y-65723596D01*
X88505127Y-65723598D01*
X88564655Y-65729999D01*
X88564672Y-65730000D01*
X89262500Y-65730000D01*
X89762500Y-65730000D01*
X90460328Y-65730000D01*
X90460344Y-65729999D01*
X90519872Y-65723598D01*
X90519879Y-65723596D01*
X90654586Y-65673354D01*
X90654593Y-65673350D01*
X90769687Y-65587190D01*
X90769690Y-65587187D01*
X90855850Y-65472093D01*
X90860104Y-65464304D01*
X90862221Y-65465460D01*
X90896327Y-65419898D01*
X90961790Y-65395479D01*
X91030064Y-65410329D01*
X91050666Y-65425751D01*
X91050993Y-65425339D01*
X91056653Y-65429815D01*
X91205875Y-65521856D01*
X91205880Y-65521858D01*
X91372302Y-65577005D01*
X91372309Y-65577006D01*
X91475019Y-65587499D01*
X91749999Y-65587499D01*
X92250000Y-65587499D01*
X92524972Y-65587499D01*
X92524986Y-65587498D01*
X92627697Y-65577005D01*
X92794119Y-65521858D01*
X92794130Y-65521853D01*
X92934903Y-65435023D01*
X93002295Y-65416582D01*
X93065097Y-65435023D01*
X93205869Y-65521853D01*
X93205880Y-65521858D01*
X93372302Y-65577005D01*
X93372309Y-65577006D01*
X93475019Y-65587499D01*
X93749999Y-65587499D01*
X93750000Y-65587498D01*
X93750000Y-64750000D01*
X92250000Y-64750000D01*
X92250000Y-65587499D01*
X91749999Y-65587499D01*
X91750000Y-65587498D01*
X91750000Y-64750000D01*
X90716362Y-64750000D01*
X90649323Y-64730315D01*
X90648932Y-64730000D01*
X89762500Y-64730000D01*
X89762500Y-65730000D01*
X89262500Y-65730000D01*
X89262500Y-64730000D01*
X88112500Y-64730000D01*
X88112500Y-65277844D01*
X77712499Y-65277844D01*
X77712500Y-65277827D01*
X77712500Y-64730000D01*
X76562500Y-64730000D01*
X76562500Y-65730000D01*
X76062500Y-65730000D01*
X76062500Y-64604000D01*
X76082185Y-64536961D01*
X76134989Y-64491206D01*
X76186500Y-64480000D01*
X76312500Y-64480000D01*
X76312500Y-64354000D01*
X76332185Y-64286961D01*
X76384989Y-64241206D01*
X76436500Y-64230000D01*
X77712500Y-64230000D01*
X77712500Y-63682172D01*
X77712499Y-63682155D01*
X77706098Y-63622627D01*
X77687979Y-63574048D01*
X77682995Y-63504356D01*
X77687976Y-63487391D01*
X77706591Y-63437483D01*
X77713000Y-63377873D01*
X77712999Y-61782128D01*
X77706591Y-61722517D01*
X77688247Y-61673334D01*
X77683262Y-61603643D01*
X77688247Y-61586665D01*
X77706589Y-61537488D01*
X77706591Y-61537483D01*
X77713000Y-61477873D01*
X77712999Y-59882128D01*
X77706591Y-59822517D01*
X77688247Y-59773334D01*
X77683262Y-59703643D01*
X77688247Y-59686665D01*
X77706589Y-59637488D01*
X77706591Y-59637483D01*
X77713000Y-59577873D01*
X77712999Y-57982128D01*
X77706591Y-57922517D01*
X77687980Y-57872618D01*
X77682995Y-57802927D01*
X77687980Y-57785949D01*
X77706097Y-57737375D01*
X77706098Y-57737372D01*
X77712499Y-57677844D01*
X77712500Y-57677827D01*
X77712500Y-57130000D01*
X76436500Y-57130000D01*
X76369461Y-57110315D01*
X76323706Y-57057511D01*
X76312500Y-57006000D01*
X76312500Y-56880000D01*
X76186500Y-56880000D01*
X76119461Y-56860315D01*
X76073706Y-56807511D01*
X76062500Y-56756000D01*
X76062500Y-56630000D01*
X76562500Y-56630000D01*
X77712500Y-56630000D01*
X77712500Y-56082172D01*
X77712499Y-56082155D01*
X88112500Y-56082155D01*
X88112500Y-56630000D01*
X89262500Y-56630000D01*
X89762500Y-56630000D01*
X90912500Y-56630000D01*
X90912500Y-56082172D01*
X90912499Y-56082155D01*
X90906098Y-56022627D01*
X90906096Y-56022620D01*
X90855854Y-55887913D01*
X90855850Y-55887906D01*
X90769690Y-55772812D01*
X90769687Y-55772809D01*
X90654593Y-55686649D01*
X90654586Y-55686645D01*
X90519879Y-55636403D01*
X90519872Y-55636401D01*
X90460344Y-55630000D01*
X89762500Y-55630000D01*
X89762500Y-56630000D01*
X89262500Y-56630000D01*
X89262500Y-55630000D01*
X88564655Y-55630000D01*
X88505127Y-55636401D01*
X88505120Y-55636403D01*
X88370413Y-55686645D01*
X88370406Y-55686649D01*
X88255312Y-55772809D01*
X88255309Y-55772812D01*
X88169149Y-55887906D01*
X88169145Y-55887913D01*
X88118903Y-56022620D01*
X88118901Y-56022627D01*
X88112500Y-56082155D01*
X77712499Y-56082155D01*
X77706098Y-56022627D01*
X77706096Y-56022620D01*
X77655854Y-55887913D01*
X77655850Y-55887906D01*
X77569690Y-55772812D01*
X77569687Y-55772809D01*
X77454593Y-55686649D01*
X77454586Y-55686645D01*
X77319879Y-55636403D01*
X77319872Y-55636401D01*
X77260344Y-55630000D01*
X76562500Y-55630000D01*
X76562500Y-56630000D01*
X76062500Y-56630000D01*
X76062500Y-55630000D01*
X75836000Y-55630000D01*
X75768961Y-55610315D01*
X75723206Y-55557511D01*
X75712000Y-55506000D01*
X75712000Y-55188596D01*
X75731685Y-55121557D01*
X75748314Y-55100920D01*
X75821390Y-55027844D01*
X77862500Y-55027844D01*
X77868901Y-55087372D01*
X77868903Y-55087379D01*
X77919145Y-55222086D01*
X77919149Y-55222093D01*
X78005309Y-55337187D01*
X78005312Y-55337190D01*
X78120406Y-55423350D01*
X78120413Y-55423354D01*
X78255120Y-55473596D01*
X78255127Y-55473598D01*
X78314655Y-55479999D01*
X78314672Y-55480000D01*
X78862500Y-55480000D01*
X79362500Y-55480000D01*
X79910328Y-55480000D01*
X79910344Y-55479999D01*
X79969877Y-55473597D01*
X79969878Y-55473597D01*
X80019165Y-55455214D01*
X80088856Y-55450228D01*
X80105835Y-55455214D01*
X80155121Y-55473597D01*
X80214655Y-55479999D01*
X80214672Y-55480000D01*
X80762500Y-55480000D01*
X80762500Y-54330000D01*
X79362500Y-54330000D01*
X79362500Y-55480000D01*
X78862500Y-55480000D01*
X78862500Y-54330000D01*
X77862500Y-54330000D01*
X77862500Y-55027844D01*
X75821390Y-55027844D01*
X77650821Y-53198413D01*
X77712142Y-53164930D01*
X77781834Y-53169914D01*
X77837767Y-53211786D01*
X77862184Y-53277250D01*
X77862500Y-53286096D01*
X77862500Y-53830000D01*
X80888500Y-53830000D01*
X80955539Y-53849685D01*
X81001294Y-53902489D01*
X81012500Y-53954000D01*
X81012500Y-54080000D01*
X81138500Y-54080000D01*
X81205539Y-54099685D01*
X81251294Y-54152489D01*
X81262500Y-54204000D01*
X81262500Y-55480000D01*
X81810328Y-55480000D01*
X81810344Y-55479999D01*
X81869872Y-55473598D01*
X81869875Y-55473597D01*
X81918449Y-55455480D01*
X81988140Y-55450494D01*
X82005110Y-55455477D01*
X82055017Y-55474091D01*
X82114627Y-55480500D01*
X83710372Y-55480499D01*
X83769983Y-55474091D01*
X83819165Y-55455746D01*
X83888855Y-55450761D01*
X83905833Y-55455747D01*
X83955008Y-55474088D01*
X83955011Y-55474088D01*
X83955017Y-55474091D01*
X84014627Y-55480500D01*
X85610372Y-55480499D01*
X85669983Y-55474091D01*
X85719882Y-55455479D01*
X85789569Y-55450494D01*
X85806548Y-55455479D01*
X85855128Y-55473598D01*
X85855127Y-55473598D01*
X85914655Y-55479999D01*
X85914672Y-55480000D01*
X86462500Y-55480000D01*
X86462500Y-54204000D01*
X86482185Y-54136961D01*
X86534989Y-54091206D01*
X86586500Y-54080000D01*
X86838500Y-54080000D01*
X86905539Y-54099685D01*
X86951294Y-54152489D01*
X86962500Y-54204000D01*
X86962500Y-55480000D01*
X87510328Y-55480000D01*
X87510344Y-55479999D01*
X87569872Y-55473598D01*
X87569879Y-55473596D01*
X87704586Y-55423354D01*
X87704593Y-55423350D01*
X87819687Y-55337190D01*
X87819690Y-55337187D01*
X87905850Y-55222093D01*
X87905854Y-55222086D01*
X87956096Y-55087379D01*
X87956098Y-55087372D01*
X87962499Y-55027844D01*
X87962500Y-55027827D01*
X87962500Y-54226597D01*
X87982185Y-54159558D01*
X88034989Y-54113803D01*
X88104147Y-54103859D01*
X88167703Y-54132884D01*
X88174181Y-54138916D01*
X88899639Y-54864374D01*
X88899649Y-54864385D01*
X88903979Y-54868715D01*
X88903980Y-54868716D01*
X89015784Y-54980520D01*
X89083267Y-55019481D01*
X89152715Y-55059577D01*
X89305443Y-55100500D01*
X92175500Y-55100500D01*
X92242539Y-55120185D01*
X92288294Y-55172989D01*
X92299500Y-55224500D01*
X92299500Y-55900001D01*
X92299501Y-55900019D01*
X92310000Y-56002796D01*
X92310001Y-56002799D01*
X92365185Y-56169331D01*
X92365189Y-56169340D01*
X92429737Y-56273989D01*
X92448177Y-56341381D01*
X92427254Y-56408045D01*
X92399686Y-56437460D01*
X92354576Y-56472074D01*
X92258399Y-56597413D01*
X92197944Y-56743368D01*
X92190487Y-56800000D01*
X92873000Y-56800000D01*
X92940039Y-56819685D01*
X92985794Y-56872489D01*
X92997000Y-56924000D01*
X92997000Y-57097638D01*
X92977315Y-57164677D01*
X92924511Y-57210432D01*
X92855353Y-57220376D01*
X92810736Y-57200000D01*
X92190490Y-57200000D01*
X92190488Y-57200001D01*
X92197942Y-57256627D01*
X92197944Y-57256633D01*
X92258399Y-57402585D01*
X92354575Y-57527924D01*
X92479913Y-57624100D01*
X92625865Y-57684554D01*
X92625869Y-57684555D01*
X92743176Y-57699999D01*
X92799999Y-57699998D01*
X92800000Y-57699998D01*
X92800000Y-57367237D01*
X92819685Y-57300198D01*
X92872489Y-57254443D01*
X92941647Y-57244499D01*
X93005203Y-57273524D01*
X93038561Y-57319785D01*
X93072963Y-57402840D01*
X93174166Y-57534731D01*
X93171353Y-57536888D01*
X93197103Y-57583779D01*
X93200000Y-57610426D01*
X93200000Y-57699999D01*
X93256823Y-57699999D01*
X93374129Y-57684556D01*
X93374428Y-57684476D01*
X93374737Y-57684476D01*
X93382189Y-57683495D01*
X93382318Y-57684476D01*
X93432615Y-57684476D01*
X93432680Y-57683983D01*
X93436425Y-57684476D01*
X93438621Y-57684476D01*
X93440730Y-57685040D01*
X93440738Y-57685044D01*
X93558139Y-57700500D01*
X94071860Y-57700499D01*
X94071863Y-57700499D01*
X94189253Y-57685046D01*
X94189256Y-57685044D01*
X94189262Y-57685044D01*
X94228049Y-57668977D01*
X94297516Y-57661509D01*
X94359995Y-57692783D01*
X94395648Y-57752872D01*
X94399500Y-57783539D01*
X94399500Y-59175500D01*
X94379815Y-59242539D01*
X94327011Y-59288294D01*
X94275500Y-59299500D01*
X93599998Y-59299500D01*
X93599980Y-59299501D01*
X93497203Y-59310000D01*
X93497200Y-59310001D01*
X93330668Y-59365185D01*
X93330663Y-59365187D01*
X93181342Y-59457289D01*
X93087681Y-59550951D01*
X93026358Y-59584436D01*
X92956666Y-59579452D01*
X92912319Y-59550951D01*
X92818657Y-59457289D01*
X92818656Y-59457288D01*
X92669334Y-59365186D01*
X92502797Y-59310001D01*
X92502795Y-59310000D01*
X92400010Y-59299500D01*
X91599998Y-59299500D01*
X91599980Y-59299501D01*
X91497203Y-59310000D01*
X91497200Y-59310001D01*
X91330668Y-59365185D01*
X91330663Y-59365187D01*
X91181345Y-59457287D01*
X91124680Y-59513952D01*
X91063356Y-59547436D01*
X90993665Y-59542451D01*
X90937731Y-59500580D01*
X90913315Y-59435115D01*
X90912999Y-59426295D01*
X90912999Y-57982128D01*
X90906591Y-57922517D01*
X90887980Y-57872618D01*
X90882995Y-57802927D01*
X90887980Y-57785949D01*
X90906097Y-57737375D01*
X90906098Y-57737372D01*
X90912499Y-57677844D01*
X90912500Y-57677827D01*
X90912500Y-57130000D01*
X88112500Y-57130000D01*
X88112500Y-57677844D01*
X88118901Y-57737372D01*
X88118903Y-57737383D01*
X88137019Y-57785953D01*
X88142003Y-57855644D01*
X88137020Y-57872616D01*
X88118408Y-57922517D01*
X88112001Y-57982116D01*
X88112001Y-57982123D01*
X88112000Y-57982135D01*
X88112000Y-59577870D01*
X88112001Y-59577876D01*
X88118408Y-59637482D01*
X88131504Y-59672593D01*
X88136752Y-59686665D01*
X88136753Y-59686666D01*
X88141737Y-59756358D01*
X88136753Y-59773331D01*
X88118409Y-59822514D01*
X88118408Y-59822516D01*
X88112001Y-59882116D01*
X88112001Y-59882123D01*
X88112000Y-59882135D01*
X88112000Y-61477870D01*
X88112001Y-61477876D01*
X88118408Y-61537482D01*
X88131504Y-61572593D01*
X88136752Y-61586665D01*
X88136753Y-61586666D01*
X88141737Y-61656358D01*
X88136753Y-61673331D01*
X88118409Y-61722514D01*
X88118408Y-61722516D01*
X88112001Y-61782116D01*
X88112001Y-61782123D01*
X88112000Y-61782135D01*
X88112000Y-63377870D01*
X88112001Y-63377876D01*
X88118409Y-63437484D01*
X88137019Y-63487382D01*
X88142003Y-63557074D01*
X88137020Y-63574046D01*
X88118902Y-63622623D01*
X88118901Y-63622627D01*
X88112500Y-63682155D01*
X88112500Y-64230000D01*
X90971138Y-64230000D01*
X91038177Y-64249685D01*
X91038568Y-64250000D01*
X93876000Y-64250000D01*
X93943039Y-64269685D01*
X93988794Y-64322489D01*
X94000000Y-64374000D01*
X94000000Y-64500000D01*
X94126000Y-64500000D01*
X94193039Y-64519685D01*
X94238794Y-64572489D01*
X94250000Y-64624000D01*
X94250000Y-65587499D01*
X94524972Y-65587499D01*
X94524986Y-65587498D01*
X94627697Y-65577005D01*
X94736496Y-65540953D01*
X94806324Y-65538551D01*
X94866366Y-65574283D01*
X94897559Y-65636803D01*
X94899500Y-65658659D01*
X94899500Y-66199902D01*
X94879815Y-66266941D01*
X94863181Y-66287583D01*
X92287584Y-68863181D01*
X92226261Y-68896666D01*
X92199903Y-68899500D01*
X87651496Y-68899500D01*
X87584457Y-68879815D01*
X87538702Y-68827011D01*
X87528758Y-68757853D01*
X87557783Y-68694297D01*
X87608163Y-68659318D01*
X87704586Y-68623354D01*
X87704593Y-68623350D01*
X87819687Y-68537190D01*
X87819690Y-68537187D01*
X87905850Y-68422093D01*
X87905854Y-68422086D01*
X87956096Y-68287379D01*
X87956098Y-68287372D01*
X87962499Y-68227844D01*
X87962500Y-68227827D01*
X87962500Y-67530000D01*
X86962500Y-67530000D01*
X86962500Y-68680000D01*
X87298256Y-68680000D01*
X87365295Y-68699685D01*
X87411050Y-68752489D01*
X87420994Y-68821647D01*
X87391969Y-68885203D01*
X87333191Y-68922977D01*
X87330384Y-68923765D01*
X87268216Y-68940423D01*
X87268209Y-68940426D01*
X87131290Y-69019475D01*
X87131282Y-69019481D01*
X87019481Y-69131282D01*
X87019475Y-69131290D01*
X86940426Y-69268209D01*
X86940423Y-69268216D01*
X86899500Y-69420943D01*
X86899500Y-71207465D01*
X86879815Y-71274504D01*
X86827011Y-71320259D01*
X86788102Y-71330823D01*
X86747202Y-71335001D01*
X86747200Y-71335001D01*
X86580668Y-71390185D01*
X86580663Y-71390187D01*
X86431342Y-71482289D01*
X86307289Y-71606342D01*
X86211821Y-71761121D01*
X86159873Y-71807845D01*
X86090910Y-71819068D01*
X86026828Y-71791224D01*
X86018601Y-71783705D01*
X85879786Y-71644890D01*
X85707815Y-71519948D01*
X85707814Y-71519947D01*
X85668205Y-71499765D01*
X85617409Y-71451791D01*
X85600500Y-71389281D01*
X85600500Y-68786101D01*
X85606738Y-68764855D01*
X85608318Y-68742769D01*
X85616390Y-68731985D01*
X85620185Y-68719062D01*
X85636919Y-68704561D01*
X85650189Y-68686835D01*
X85669625Y-68676221D01*
X85672989Y-68673307D01*
X85681155Y-68669923D01*
X85719882Y-68655479D01*
X85789571Y-68650495D01*
X85806548Y-68655479D01*
X85855128Y-68673598D01*
X85855127Y-68673598D01*
X85914655Y-68679999D01*
X85914672Y-68680000D01*
X86462500Y-68680000D01*
X86462500Y-67030000D01*
X86962500Y-67030000D01*
X87962500Y-67030000D01*
X87962500Y-66332172D01*
X87962499Y-66332155D01*
X87956098Y-66272627D01*
X87956096Y-66272620D01*
X87905854Y-66137913D01*
X87905850Y-66137906D01*
X87819690Y-66022812D01*
X87819687Y-66022809D01*
X87704593Y-65936649D01*
X87704586Y-65936645D01*
X87569879Y-65886403D01*
X87569872Y-65886401D01*
X87510344Y-65880000D01*
X86962500Y-65880000D01*
X86962500Y-67030000D01*
X86462500Y-67030000D01*
X86462500Y-65880000D01*
X85914655Y-65880000D01*
X85855127Y-65886401D01*
X85855123Y-65886402D01*
X85806546Y-65904520D01*
X85736854Y-65909503D01*
X85719882Y-65904519D01*
X85669985Y-65885909D01*
X85669983Y-65885908D01*
X85610383Y-65879501D01*
X85610381Y-65879500D01*
X85610373Y-65879500D01*
X85610364Y-65879500D01*
X84014629Y-65879500D01*
X84014623Y-65879501D01*
X83955016Y-65885908D01*
X83905832Y-65904253D01*
X83836140Y-65909237D01*
X83819167Y-65904253D01*
X83769982Y-65885908D01*
X83769983Y-65885908D01*
X83710383Y-65879501D01*
X83710381Y-65879500D01*
X83710373Y-65879500D01*
X83710364Y-65879500D01*
X82114629Y-65879500D01*
X82114623Y-65879501D01*
X82055016Y-65885908D01*
X82005832Y-65904253D01*
X81936140Y-65909237D01*
X81919167Y-65904253D01*
X81869982Y-65885908D01*
X81869983Y-65885908D01*
X81810383Y-65879501D01*
X81810381Y-65879500D01*
X81810373Y-65879500D01*
X81810364Y-65879500D01*
X80214629Y-65879500D01*
X80214623Y-65879501D01*
X80155017Y-65885908D01*
X80105116Y-65904520D01*
X80035425Y-65909503D01*
X80018453Y-65904519D01*
X79969883Y-65886403D01*
X79969872Y-65886401D01*
X79910344Y-65880000D01*
X79362500Y-65880000D01*
X79362500Y-68680000D01*
X79910328Y-68680000D01*
X79910344Y-68679999D01*
X79969872Y-68673598D01*
X79969875Y-68673597D01*
X80018449Y-68655480D01*
X80088140Y-68650494D01*
X80105110Y-68655477D01*
X80155017Y-68674091D01*
X80214627Y-68680500D01*
X81775500Y-68680499D01*
X81842539Y-68700184D01*
X81888294Y-68752987D01*
X81899500Y-68804499D01*
X81899500Y-71389281D01*
X81879815Y-71456320D01*
X81831795Y-71499765D01*
X81792185Y-71519947D01*
X81792184Y-71519948D01*
X81620213Y-71644890D01*
X81469894Y-71795209D01*
X81469890Y-71795214D01*
X81350008Y-71960218D01*
X81294678Y-72002884D01*
X81225065Y-72008863D01*
X81163270Y-71976257D01*
X81149372Y-71960218D01*
X81029727Y-71795540D01*
X81029723Y-71795535D01*
X80879464Y-71645276D01*
X80879459Y-71645272D01*
X80707557Y-71520379D01*
X80518215Y-71423903D01*
X80316124Y-71358241D01*
X80250000Y-71347768D01*
X80250000Y-72395854D01*
X80183343Y-72357370D01*
X80062535Y-72325000D01*
X79937465Y-72325000D01*
X79816657Y-72357370D01*
X79750000Y-72395854D01*
X79750000Y-71347768D01*
X79749999Y-71347768D01*
X79683875Y-71358241D01*
X79481784Y-71423903D01*
X79292442Y-71520379D01*
X79120540Y-71645272D01*
X79120535Y-71645276D01*
X78970276Y-71795535D01*
X78970272Y-71795540D01*
X78845379Y-71967442D01*
X78748904Y-72156782D01*
X78683242Y-72358869D01*
X78683242Y-72358872D01*
X78652970Y-72550000D01*
X79595854Y-72550000D01*
X79557370Y-72616657D01*
X79525000Y-72737465D01*
X79525000Y-72862535D01*
X79557370Y-72983343D01*
X79595854Y-73050000D01*
X78652970Y-73050000D01*
X78683242Y-73241127D01*
X78683242Y-73241130D01*
X78748904Y-73443217D01*
X78845379Y-73632557D01*
X78970272Y-73804459D01*
X78970276Y-73804464D01*
X79120535Y-73954723D01*
X79120540Y-73954727D01*
X79292442Y-74079620D01*
X79481782Y-74176095D01*
X79683871Y-74241757D01*
X79750000Y-74252231D01*
X79750000Y-73204145D01*
X79816657Y-73242630D01*
X79937465Y-73275000D01*
X80062535Y-73275000D01*
X80183343Y-73242630D01*
X80250000Y-73204145D01*
X80250000Y-74252230D01*
X80316126Y-74241757D01*
X80316129Y-74241757D01*
X80518217Y-74176095D01*
X80707557Y-74079620D01*
X80879459Y-73954727D01*
X80879464Y-73954723D01*
X81029721Y-73804466D01*
X81149371Y-73639781D01*
X81204701Y-73597115D01*
X81274314Y-73591136D01*
X81336110Y-73623741D01*
X81350008Y-73639781D01*
X81469890Y-73804785D01*
X81469894Y-73804790D01*
X81620213Y-73955109D01*
X81792179Y-74080048D01*
X81792181Y-74080049D01*
X81792184Y-74080051D01*
X81981588Y-74176557D01*
X82183757Y-74242246D01*
X82393713Y-74275500D01*
X82393714Y-74275500D01*
X82606286Y-74275500D01*
X82606287Y-74275500D01*
X82816243Y-74242246D01*
X83018412Y-74176557D01*
X83207816Y-74080051D01*
X83229789Y-74064086D01*
X83379786Y-73955109D01*
X83379788Y-73955106D01*
X83379792Y-73955104D01*
X83530104Y-73804792D01*
X83649683Y-73640204D01*
X83705011Y-73597540D01*
X83774624Y-73591561D01*
X83836420Y-73624166D01*
X83850313Y-73640199D01*
X83953925Y-73782809D01*
X83969896Y-73804792D01*
X84120213Y-73955109D01*
X84292179Y-74080048D01*
X84292181Y-74080049D01*
X84292184Y-74080051D01*
X84481588Y-74176557D01*
X84683757Y-74242246D01*
X84893713Y-74275500D01*
X84893714Y-74275500D01*
X85106286Y-74275500D01*
X85106287Y-74275500D01*
X85316243Y-74242246D01*
X85518412Y-74176557D01*
X85707816Y-74080051D01*
X85879792Y-73955104D01*
X86018604Y-73816291D01*
X86079923Y-73782809D01*
X86149615Y-73787793D01*
X86205549Y-73829664D01*
X86211821Y-73838878D01*
X86215185Y-73844333D01*
X86215186Y-73844334D01*
X86307288Y-73993656D01*
X86431344Y-74117712D01*
X86580666Y-74209814D01*
X86747203Y-74264999D01*
X86849991Y-74275500D01*
X88150008Y-74275499D01*
X88252797Y-74264999D01*
X88419334Y-74209814D01*
X88568656Y-74117712D01*
X88692712Y-73993656D01*
X88784814Y-73844334D01*
X88839999Y-73677797D01*
X88850500Y-73575009D01*
X88850499Y-72024992D01*
X88848851Y-72008863D01*
X88839999Y-71922203D01*
X88839998Y-71922200D01*
X88802104Y-71807845D01*
X88784814Y-71755666D01*
X88692712Y-71606344D01*
X88568656Y-71482288D01*
X88419334Y-71390186D01*
X88252797Y-71335001D01*
X88252795Y-71335000D01*
X88211896Y-71330822D01*
X88147205Y-71304425D01*
X88107054Y-71247244D01*
X88100500Y-71207464D01*
X88100500Y-70224500D01*
X88120185Y-70157461D01*
X88172989Y-70111706D01*
X88224500Y-70100500D01*
X92413331Y-70100500D01*
X92413347Y-70100501D01*
X92420943Y-70100501D01*
X92579054Y-70100501D01*
X92579057Y-70100501D01*
X92731785Y-70059577D01*
X92787988Y-70027128D01*
X92868716Y-69980520D01*
X92980520Y-69868716D01*
X92980520Y-69868714D01*
X92990724Y-69858511D01*
X92990727Y-69858506D01*
X95787820Y-67061414D01*
X95849142Y-67027931D01*
X95918834Y-67032915D01*
X95974767Y-67074787D01*
X95999184Y-67140251D01*
X95999500Y-67149097D01*
X95999500Y-74875500D01*
X95979815Y-74942539D01*
X95927011Y-74988294D01*
X95875500Y-74999500D01*
X74124500Y-74999500D01*
X74057461Y-74979815D01*
X74011706Y-74927011D01*
X74000500Y-74875500D01*
X74000500Y-51124500D01*
X74020185Y-51057461D01*
X74072989Y-51011706D01*
X74124500Y-51000500D01*
X95875500Y-51000500D01*
X95942539Y-51020185D01*
G37*
%TD.AperFunction*%
%TD*%
M02*
